<svg xmlns:rdf="http://www.w3.org/1999/02/22-rdf-syntax-ns#" xmlns="http://www.w3.org/2000/svg" version="1.1" xmlns:cc="http://creativecommons.org/ns#" xmlns:dc="http://purl.org/dc/elements/1.1/" viewBox="0 0 24 24">
 <path d="m6.7435 19.251q-1.6801.10589-2.4566-.45179-.77650-.55061-.77650-1.8565v-1.8777q0-1.1365-.21177-1.4189-.2117-.282-1.1435-.402v-1.2848q.93181-.11999 1.1436-.40238.21177-.28236.21177-1.4189v-1.8777q0-1.3059.77650-1.8565.77650-.55768 2.4566-.45179v1.2989q-.98122-.05648-1.2142.17647-.22589.22588-.22589 1.2565v1.8777q0 1.1295-.67768 1.6377-.31060.23295-.85416.40942.54355.15532.85416.39531.67768.50826.67768 1.6377v1.8777q0 1.0306.22589 1.2565.23295.23295 1.2142.17647v1.2989z"/>
 <path d="m8.4095 14.295h2.1601v2.1036h-2.1601v-2.1036zm0-5.3085h2.1601v2.1036h-2.1601v-2.1036z"/>
 <path d="m13.238 15.34v-1.0518h1.0871 1.08v1.5742q0 1.2706-.52238 1.9836-.51532.72002-1.5954.94592v-.77652q.68474-.21177.92475-.67767.16942-.31766.20472-.93888h-.52944-.64944v-1.0588zm0-6.3532h2.1601v2.1036h-2.1601v-2.1036z"/>
 <path d="m17.085 19.251v-1.2989q.98122.05648 1.2071-.17647.23295-.22591.23295-1.2565v-1.8777q0-1.1295.67768-1.6377.31060-.23999.85416-.39531-.54355-.17647-.85416-.40942-.67768-.50826-.67768-1.6377v-1.8777q0-1.0306-.23295-1.2565-.22589-.23295-1.2071-.17647v-1.2989q1.6801-.10589 2.4566.45179.77651.55061.77651 1.8565v1.8777q0 1.1365.21177 1.4189.21177.28238 1.1436.40238v1.2848q-.93181.11999-1.1436.40238-.21177.28238-.21177 1.4189v1.8777q0 1.3059-.77651 1.8636-.77650.55061-2.4566.44472z"/>
</svg>
