<?xml version="1.0" encoding="UTF-8" standalone="no"?>
<svg
   xmlns:dc="http://purl.org/dc/elements/1.1/"
   xmlns:cc="http://creativecommons.org/ns#"
   xmlns:rdf="http://www.w3.org/1999/02/22-rdf-syntax-ns#"
   xmlns:svg="http://www.w3.org/2000/svg"
   xmlns="http://www.w3.org/2000/svg"
   version="1.1"
   viewBox="0 0 24 24">
  <path
     d="M3.116 12.886V11.21q.51-.03.77-.155t.446-.42q.19-.3.26-.747.055-.336.055-1.168 0-1.356.125-1.887.126-.538.455-.86.328-.328.957-.516.427-.126 1.342-.126h.37V7q-.775 0-1 .092-.215.084-.32.266-.105.175-.105.608 0 .44-.062 1.67-.035.692-.182 1.126-.147.426-.377.706-.225.28-.693.58.412.237.67.56.266.313.406.768.14.454.182 1.216.05 1.16.05 1.482 0 .46.11.643.112.182.336.272.232.097.987.097v1.678h-.37q-.944 0-1.448-.154-.504-.145-.853-.495-.343-.35-.46-.867-.12-.51-.12-1.614 0-1.286-.112-1.67-.154-.56-.468-.797-.308-.245-.95-.28zM21.25 12.886q-.51.028-.768.154t-.447.426q-.182.294-.26.74-.055.336-.055 1.16 0 1.357-.126 1.895-.118.54-.447.86-.328.33-.964.518-.427.126-1.342.126h-.37v-1.677q.748 0 .98-.098.23-.092.334-.274.112-.175.112-.6.007-.427.063-1.63.034-.726.188-1.16.153-.44.405-.74.26-.308.657-.54-.517-.334-.755-.656-.328-.46-.447-1.174-.077-.49-.112-2.153-.007-.524-.098-.7-.084-.173-.314-.264Q17.26 7 16.47 7V5.33h.37q.944 0 1.447.147.504.147.846.503.343.35.46.867.127.51.127 1.615 0 1.28.105 1.67.154.56.468.804.315.238.958.272v1.678zM8.787 15.353h2.732v-2.685H8.786v2.685zM8.787 11.382h2.732V8.697H8.786v2.685zM12.535 16.65l.21 1.004c.914-.027 1.613-.256 2.105-.687.484-.43.733-1.137.733-2.113v-2.186H12.85v2.684h1.064v.054c0 .35-.12.633-.356.848-.236.215-.58.343-1.023.397zM12.85 11.382h2.733V8.697H12.85v2.685z" />
</svg>
